Coordinates
version=1
nRows=7
nColumns=33
inDegrees=yes

Units are S.I. units (second, meters, Newtons, ...)
Angles are in degrees.

endheader
time	ground_thorax_rot_x	ground_thorax_rot_y	ground_thorax_rot_z	ground_thorax_tx	ground_thorax_ty	ground_thorax_tz	clav_prot_r	clav_elev_r	scapula_abduction_r	scapula_elevation_r	scapula_upward_rot_r	scapula_winging_r	shoulder_elv_r	plane_of_elev_r	axial_rot_r	elbow_flexion_r	pro_sup_r	wrist_flex_r	wrist_dev_r	clav_prot_l	clav_elev_l	scapula_abduction_l	scapula_elevation_l	scapula_upward_rot_l	scapula_winging_l	shoulder_elv_l	plane_of_elev_l	axial_rot_l	elbow_flexion_l	pro_sup_l	wrist_flex_l	wrist_dev_l
      5.76000000	    -19.79815247	    -34.45697628	     56.76927082	     -9.77071971	    802.26018872	    -41.69580859	     28.81342002	    -45.00000000	     40.47253997	    -45.00000000	    -45.00000000	  -2623.48381826	  -2265.31655891	    159.29868699	     33.13577073	   3240.13806972	   -191.02992819	     11.64145270	     13.57051549	     -0.70209002	     31.60020573	    -29.27104144	    -45.00000000	    -45.00000000	  -3154.43274507	  -2968.71746122	    133.30879640	   -103.90208180	    349.22940234	     41.51483466	     13.06579883	    -15.85329233
      5.77000000	    -20.01375601	    -34.47344387	     56.51956438	    -11.42209723	    803.63936645	    -41.71592018	     28.91372134	    -45.00000000	     40.61802316	    -45.00000000	    -45.00000000	  -2623.59913030	  -2265.26765517	    159.17673715	     32.87722289	   3240.08929692	   -191.21393600	     11.66175849	     13.70394460	     -0.82248490	     31.64748557	    -29.36235003	    -45.00000000	    -45.00000000	  -3154.26711482	  -2968.59468151	    133.26204220	   -103.90100410	    349.26597153	     41.41301061	     13.12989449	    -15.94389848
      5.78000000	    -20.55902280	    -34.29943129	     55.88158389	    -13.09311141	    805.04258895	    -41.75064562	     28.31509708	    -45.00000000	     40.48628706	    -45.00000000	    -45.00000000	  -2623.39725406	  -2265.06334629	    159.31657283	     32.49834337	   3239.87367535	   -191.39986750	     11.85139906	     13.59624423	     -0.31456903	     31.79992157	    -29.79615367	    -45.00000000	    -45.00000000	  -3154.13943914	  -2968.60162301	    133.27100262	   -103.81308592	    349.32679230	     41.31033881	     13.12743056	    -15.98177237
      5.79000000	    -20.73288876	    -34.36587177	     55.69123672	    -14.77728424	    806.46108277	    -41.79703913	     28.51804527	    -45.00000000	     40.55806716	    -45.00000000	    -45.00000000	  -2623.49111932	  -2264.99918599	    159.15222060	     32.19852652	   3239.92866596	   -191.56769886	     11.83925245	     13.70107454	     -0.49012287	     31.80838749	    -29.82754070	    -45.00000000	    -45.00000000	  -3153.98187239	  -2968.42772490	    133.24299408	   -103.80616923	    349.31752034	     41.18192698	     13.19454568	    -16.04641575
      5.80000000	    -21.09359500	    -34.28872391	     55.26189369	    -16.47460087	    807.89201855	    -41.85386763	     28.27647038	    -45.00000000	     40.54173079	    -45.00000000	    -45.00000000	  -2623.48025717	  -2264.84233773	    159.11905235	     31.88959713	   3239.81850762	   -191.74942202	     11.93460830	     13.70741428	     -0.32257217	     31.89261104	    -30.07225190	    -45.00000000	    -45.00000000	  -3153.84685212	  -2968.35772211	    133.21749015	   -103.80795270	    349.32826405	     41.03302998	     13.23966335	    -16.09004747
      5.81000000	    -21.39163923	    -34.28270372	     54.90042613	    -18.18720524	    809.33408705	    -41.91975141	     28.26126863	    -45.00000000	     40.60956532	    -45.00000000	    -45.00000000	  -2623.50398055	  -2264.76088204	    159.05945892	     31.62537260	   3239.77899203	   -191.92487056	     11.97861391	     13.76832368	     -0.31909022	     31.94773727	    -30.21828026	    -45.00000000	    -45.00000000	  -3153.68417928	  -2968.27372854	    133.19613199	   -103.82274561	    349.35162777	     40.85998436	     13.29419900	    -16.14307868
      5.82000000	    -21.59808401	    -34.31250332	     54.63984501	    -19.92558781	    810.79465364	    -41.99509368	     28.29942486	    -45.00000000	     40.69591675	    -45.00000000	    -45.00000000	  -2623.58602581	  -2264.66959638	    158.93011406	     31.38539150	   3239.81786076	   -192.11496854	     11.96205519	     13.84962778	     -0.36028515	     31.98998900	    -30.28596467	    -45.00000000	    -45.00000000	  -3153.56537355	  -2968.14109332	    133.19518341	   -103.86750300	    349.34030877	     40.66647516	     13.36371810	    -16.17830577
